<?xml version="1.0" encoding="UTF-8"?>
<svg version="1.1" xmlns="http://www.w3.org/2000/svg" width="1200" height="1200">
<path d="M0 0 C1.7541925 -0.00101212 1.7541925 -0.00101212 3.54382324 -0.00204468 C23.40347269 0.01606864 42.98239647 0.7535172 62.6875 3.25 C63.37745056 3.33721313 64.06740112 3.42442627 64.77825928 3.51428223 C117.05301449 10.2123565 167.7212564 24.44644925 215.6875 46.25 C217.01539551 46.84675537 217.01539551 46.84675537 218.37011719 47.45556641 C252.76088555 62.96974368 284.82880875 83.27635325 314.6875 106.25 C315.58178711 106.93376709 315.58178711 106.93376709 316.49414062 107.63134766 C325.31958908 114.39152441 333.75434253 121.53774013 342.09423828 128.88623047 C343.56168148 130.14230428 345.08937248 131.32707113 346.62109375 132.50390625 C347.64396484 133.36822266 347.64396484 133.36822266 348.6875 134.25 C348.6875 134.91 348.6875 135.57 348.6875 136.25 C346.78291016 136.28867187 346.78291016 136.28867187 344.83984375 136.328125 C320.31296979 137.03922238 297.95388957 144.7907048 280.65234375 162.94140625 C262.82000251 183.89352091 255.07637215 208.95946699 256.6875 236.25 C259.81083442 273.56984202 281.75418885 306.80461148 301.06298828 337.72827148 C309.39874219 351.1384636 316.87562391 365.00824182 323.6875 379.25 C324.00928223 379.91338379 324.33106445 380.57676758 324.66259766 381.26025391 C366.03278144 467.23041702 342.70525219 551.12040511 315.92285156 637.13476562 C307.36449113 664.63887738 299.06539459 692.21670336 290.83520508 719.82061768 C289.1401645 725.50450674 287.4431198 731.18779723 285.74609375 736.87109375 C285.06915229 739.13818343 284.39221137 741.40527328 283.715271 743.67236328 C283.38115959 744.79128967 283.04704819 745.91021606 282.70281219 747.06304932 C281.70304619 750.41159731 280.70357837 753.76023418 279.7041626 757.10888672 C272.72305507 780.49658939 265.70774689 803.87402069 258.6875 827.25 C258.0275 827.25 257.3675 827.25 256.6875 827.25 C246.30784799 796.80658044 236.02493926 766.33322673 225.875 735.8125 C219.66591833 717.14223104 213.44040976 698.47994134 207.03817749 679.87478638 C200.62152393 661.21117207 194.41687574 642.47670993 188.1875 623.75 C178.57004622 594.80959298 178.57004622 594.80959298 168.75 565.9375 C161.61508551 545.21818675 154.73061101 524.4152 147.81339264 503.62248993 C141.23394011 483.84593758 134.65453467 464.07149067 127.86816406 444.36474609 C120.93411534 424.21183887 114.25084636 403.97438664 107.52502441 383.75131226 C101.11512208 364.47946414 94.67294792 345.22140272 88.06341553 326.01687622 C82.03971423 308.50324818 76.33619159 290.88765527 70.6875 273.25 C71.25553848 273.20432892 71.82357697 273.15865784 72.40882874 273.11160278 C78.39671919 272.62938715 84.38414189 272.14163982 90.37133789 271.65087891 C92.59681168 271.46916163 94.82239575 271.28878919 97.0480957 271.10986328 C122.42637063 270.67477502 122.42637063 270.67477502 144.5625 260.6875 C148.22716606 255.73895433 149.05928477 249.53017702 148.37890625 243.52734375 C146.86471699 237.29189357 144.07296391 233.67816627 138.6875 230.25 C137.8671653 229.72471962 137.8671653 229.72471962 137.03025818 229.18882751 C133.7470783 227.87313918 130.91655741 228.03013655 127.38696289 228.07250977 C126.68005593 228.08016389 125.97314898 228.08781801 125.24482059 228.09570408 C117.98298615 228.20325107 110.74226071 228.61559808 103.49609375 229.08984375 C102.09435568 229.17762447 100.69258571 229.26489702 99.29078674 229.35169983 C95.63838664 229.57891226 91.98635902 229.81159535 88.33441162 230.04595947 C56.67699821 232.07401389 25.16657436 233.48461269 -6.5625 233.5 C-7.39899708 233.50088371 -8.23549416 233.50176743 -9.09733963 233.50267792 C-41.58997088 233.53301447 -73.88518121 232.39834092 -106.3125 230.25 C-107.62577271 230.16368317 -107.62577271 230.16368317 -108.96557617 230.07562256 C-115.13871388 229.66895342 -121.31081405 229.2480001 -127.48266602 228.82226562 C-143.63111163 226.80909632 -143.63111163 226.80909632 -158.765625 230.83984375 C-162.88829128 234.59813296 -166.00636526 239.88251791 -166.515625 245.484375 C-166.6236514 251.28179166 -165.94611267 255.08811918 -163.3125 260.25 C-162.9825 261.24 -162.6525 262.23 -162.3125 263.25 C-160.53021064 264.39209817 -160.53021064 264.39209817 -158.3125 265.25 C-157.602146 265.57871094 -156.89179199 265.90742188 -156.15991211 266.24609375 C-152.64415063 267.48563857 -149.18891018 267.88430187 -145.50390625 268.25 C-144.74820343 268.33066711 -143.99250061 268.41133423 -143.21389771 268.4944458 C-140.76829089 268.75348555 -138.32174752 269.00198754 -135.875 269.25 C-134.19957648 269.42498555 -132.52420214 269.6004427 -130.84887695 269.77636719 C-118.68003541 271.04546528 -106.50248864 272.20355896 -94.3125 273.25 C-89.11780477 286.36665784 -84.23399299 299.58415729 -79.43865967 312.85147095 C-77.24544987 318.91845266 -75.04509879 324.98284254 -72.84375 331.046875 C-72.61646587 331.67312586 -72.38918175 332.29937672 -72.15501022 332.94460487 C-67.0514518 347.00320319 -61.87153055 361.03339969 -56.6875 375.0625 C-49.24542013 395.20785809 -41.89423613 415.3835364 -34.67016602 435.6081543 C-31.21109492 445.28048665 -27.7026047 454.9274168 -24.046875 464.52734375 C-23.37670169 466.29851965 -22.70669416 468.06975829 -22.03686523 469.84106445 C-20.80539566 473.09604308 -19.5522905 476.34143486 -18.28540039 479.58276367 C-17.73758519 481.0262043 -17.19057845 482.46995212 -16.64453125 483.9140625 C-16.39036438 484.54501328 -16.13619751 485.17596405 -15.87432861 485.82603455 C-12.4543528 495.04055756 -16.67465937 504.04159508 -19.64674377 512.85400391 C-20.10609971 514.23425402 -20.56479585 515.61472387 -21.02289146 516.9953928 C-22.2794804 520.77631093 -23.54537303 524.55405665 -24.81283748 528.33134055 C-26.17955342 532.40986117 -27.53757676 536.49127544 -28.89666748 540.57234192 C-31.25120226 547.63856581 -33.61121532 554.70294049 -35.97497749 561.76608276 C-39.3925564 571.97815438 -42.801831 582.19298294 -46.20909642 592.4084996 C-51.73761502 608.98311697 -57.27282701 625.5554909 -62.81225586 642.12646484 C-68.19272706 658.22197121 -73.57004097 674.31852667 -78.94311523 690.41650391 C-79.27440902 691.40907165 -79.60570281 692.40163939 -79.9470358 693.42428493 C-81.60904869 698.40379836 -83.27099957 703.38333248 -84.93291962 708.36287689 C-98.71649951 749.66179765 -112.51094562 790.9570829 -126.3125 832.25 C-129.42154381 830.6954781 -129.52200905 828.26266398 -130.60888672 825.02026367 C-130.83106495 824.36421268 -131.05324318 823.7081617 -131.28215408 823.03223038 C-132.0259816 820.82981337 -132.75904216 818.62396254 -133.4921875 816.41796875 C-134.0169359 814.85688884 -134.5423298 813.29602578 -135.06832886 811.73536682 C-136.48789543 807.51720355 -137.89815658 803.29598146 -139.30674744 799.07414246 C-140.77758712 794.67100073 -142.25700491 790.27074281 -143.73535156 785.87011719 C-147.27267713 775.33395067 -150.79469166 764.79269659 -154.3125 754.25 C-154.5684343 753.48310097 -154.82436859 752.71620193 -155.08805847 751.92606354 C-159.24698901 739.46358142 -163.40050495 726.99929978 -167.5456543 714.53222656 C-172.2270043 700.45874153 -176.96955987 686.40874764 -181.7923584 672.38317871 C-188.2628362 653.54916844 -194.52675536 634.6462281 -200.8125 615.75 C-210.42994948 586.80959152 -210.42994948 586.80959152 -220.25 557.9375 C-227.38491449 537.21818675 -234.26938899 516.4152 -241.18660736 495.62248993 C-247.76605989 475.84593758 -254.34546533 456.07149067 -261.13183594 436.36474609 C-267.78026111 417.04196644 -274.19405852 397.64038477 -280.64387894 378.2506752 C-287.13785155 358.72902918 -293.63615149 339.21025518 -300.3125 319.75 C-300.58515686 318.9550412 -300.85781372 318.1600824 -301.13873291 317.34103394 C-302.16033125 314.36299598 -303.18213097 311.38502727 -304.20437622 308.4072113 C-306.72741888 301.05190324 -309.21671438 293.68551315 -311.6875 286.3125 C-312.06390625 285.19617188 -312.4403125 284.07984375 -312.828125 282.9296875 C-313.16070312 281.93324219 -313.49328125 280.93679688 -313.8359375 279.91015625 C-314.12388184 279.05043213 -314.41182617 278.19070801 -314.70849609 277.30493164 C-315.3125 275.25 -315.3125 275.25 -315.3125 273.25 C-314.74446152 273.20432892 -314.17642303 273.15865784 -313.59117126 273.11160278 C-307.60328081 272.62938715 -301.61585811 272.14163982 -295.62866211 271.65087891 C-293.40318832 271.46916163 -291.17760425 271.28878919 -288.9519043 271.10986328 C-263.65659676 270.89440343 -263.65659676 270.89440343 -241.9375 260.8125 C-238.0980546 254.75798995 -237.5130218 249.29725225 -238.3125 242.25 C-239.95449477 236.90686027 -242.54421122 233.27379288 -247.3125 230.25 C-251.38895005 228.25736318 -254.66527017 228.01360438 -259.18164062 228.07250977 C-259.83734291 228.08016389 -260.4930452 228.08781801 -261.16861725 228.09570408 C-268.25909191 228.20836259 -275.33100731 228.62863153 -282.40625 229.08984375 C-283.80941909 229.17759656 -285.21261821 229.26487012 -286.61584473 229.35169983 C-290.2764603 229.57918879 -293.93673061 229.81178365 -297.59692383 230.04595947 C-309.50056015 230.80641492 -321.40544949 231.54499348 -333.3125 232.25 C-334.33215851 232.31148224 -335.35181702 232.37296448 -336.40237427 232.43630981 C-354.83339051 233.51471071 -373.27715315 233.36877137 -391.73181152 233.31866455 C-395.98331187 233.30825684 -400.23481859 233.30383037 -404.48632812 233.29882812 C-412.76173565 233.28824629 -421.03711308 233.27128192 -429.3125 233.25 C-428.40212704 228.86001908 -426.10273069 225.68041763 -423.5625 222.0625 C-422.83474365 221.01606323 -422.83474365 221.01606323 -422.09228516 219.94848633 C-413.69893253 207.99015779 -404.71324541 196.43143268 -395.3125 185.25 C-394.87647461 184.72905762 -394.44044922 184.20811523 -393.99121094 183.67138672 C-382.74691995 170.2665353 -370.7847073 157.64247859 -358.4375 145.25 C-357.55779541 144.36562256 -356.67809082 143.48124512 -355.77172852 142.57006836 C-350.77864636 137.58928794 -345.67660337 132.8268702 -340.3125 128.25 C-339.22936218 127.30074031 -338.14728139 126.35027278 -337.06640625 125.3984375 C-328.12169093 117.59634101 -318.81300249 110.35952565 -309.3125 103.25 C-308.15693604 102.37891602 -308.15693604 102.37891602 -306.97802734 101.49023438 C-296.04814028 93.25739086 -284.94290531 85.46238948 -273.3125 78.25 C-272.68424316 77.86005859 -272.05598633 77.47011719 -271.40869141 77.06835938 C-267.08052222 74.39752068 -262.71181116 71.80177876 -258.3125 69.25 C-257.66861328 68.87584961 -257.02472656 68.50169922 -256.36132812 68.11621094 C-195.40178971 32.93809682 -127.64351867 10.90105758 -57.75 2.9375 C-57.03713837 2.85609772 -56.32427673 2.77469543 -55.58981323 2.69082642 C-37.04060787 0.60570576 -18.65499127 0.0097206 0 0 Z " fill="#20749B" transform="translate(599.3125,84.75)"/>
<path d="M0 0 C1.41524673 0.17429942 2.83061576 0.34760823 4.24609375 0.52001953 C26.05716659 3.20259098 47.58239206 7.09123347 69 12 C69.65166138 12.14932983 70.30332275 12.29865967 70.97473145 12.45251465 C158.49962444 32.65902131 240.48510308 74.42035336 348.41015625 165.4453125 C350.12214427 167.11944329 351.91764397 168.64640378 353.75 170.1875 C357.82503144 173.6928183 361.40131709 177.60331302 364.99414062 181.58764648 C367.51425028 184.38234968 370.06199123 187.11635545 372.75 189.75 C376.37775612 193.32654074 379.68691169 197.13265444 383 201 C383.942438 202.09007753 384.88516982 203.17990107 385.828125 204.26953125 C386.86482305 205.4711474 387.90127988 206.67297169 388.9375 207.875 C389.41533936 208.42744385 389.89317871 208.9798877 390.38549805 209.54907227 C406.7521584 228.60275525 421.36371835 248.93005092 435 270 C435.82757812 271.27254639 435.82757812 271.27254639 436.671875 272.57080078 C473.65631212 329.59228908 500.44592096 392.85940759 516 459 C516.27005859 460.12647949 516.54011719 461.25295898 516.81835938 462.41357422 C521.69247135 482.94802746 524.94370284 503.74171175 527.69146729 524.65447998 C527.88658462 526.13779631 528.08414538 527.62079507 528.28509521 529.10333252 C534.29117748 573.51156652 534.01590416 622.61676869 528 667 C527.78845272 668.6082197 527.57703348 670.21645625 527.36572266 671.82470703 C524.53671777 693.08908401 521.00325803 714.13020473 516 735 C515.71962891 736.19222168 515.43925781 737.38444336 515.15039062 738.61279297 C498.2293828 809.89207153 467.50474717 879.31424694 425 939 C424.15179579 940.20664625 423.30414049 941.41367854 422.45703125 942.62109375 C404.60094473 967.96811048 384.74078757 992.70174733 362.5546875 1014.41015625 C360.88055671 1016.12214427 359.35359622 1017.91764397 357.8125 1019.75 C354.3071817 1023.82503144 350.39668698 1027.40131709 346.41235352 1030.99414062 C343.61765032 1033.51425028 340.88364455 1036.06199123 338.25 1038.75 C334.67334309 1042.37787395 330.8661061 1045.68529963 327 1049 C325.9566862 1049.90715539 324.91374621 1050.81474081 323.87109375 1051.72265625 C315.77794816 1058.7460911 307.50596602 1065.48347984 299 1072 C298.38962891 1072.46873535 297.77925781 1072.9374707 297.15039062 1073.42041016 C245.77755914 1112.74857519 188.91002925 1143.33413171 128 1165 C126.92024902 1165.38462402 125.84049805 1165.76924805 124.72802734 1166.16552734 C86.60213443 1179.53013745 46.59309401 1188.12815957 6.5625 1193.25 C5.38075195 1193.40138428 4.19900391 1193.55276855 2.98144531 1193.70874023 C-1.00820032 1194.18703267 -5.00095656 1194.61006376 -9 1195 C-9.88368256 1195.08720306 -10.76736511 1195.17440613 -11.67782593 1195.26425171 C-29.86279012 1197.00138393 -47.96840504 1197.36448373 -66.21745682 1197.31805801 C-68.47292401 1197.31241131 -70.72838366 1197.30959489 -72.9838562 1197.30697632 C-94.79016086 1197.27017881 -116.34842696 1196.81635309 -138 1194 C-139.41524673 1193.82570058 -140.83061576 1193.65239177 -142.24609375 1193.47998047 C-221.54388205 1183.72669688 -299.13455862 1158.40901482 -422 1083 C-423.36957568 1081.99189401 -424.73936445 1080.98407743 -426.109375 1079.9765625 C-447.97273783 1063.81967487 -469.00524578 1046.27233216 -488.08203125 1026.8828125 C-489.70659836 1025.2880236 -491.34364744 1023.84949075 -493.125 1022.4375 C-496.08665297 1019.92653335 -498.44078674 1017.25251225 -500.94921875 1014.3046875 C-503.36151577 1011.59372514 -505.91645685 1009.04549842 -508.5 1006.5 C-512.88372657 1002.1626426 -517.01101953 997.70100944 -521 993 C-521.90141637 991.96143394 -522.80385009 990.92375043 -523.70703125 989.88671875 C-530.73775022 981.790078 -537.47899844 973.51181556 -544 965 C-544.70310303 964.08444336 -544.70310303 964.08444336 -545.42041016 963.15039062 C-565.09334213 937.45241519 -582.54116914 910.43501963 -598 882 C-598.56041992 880.97100586 -599.12083984 879.94201172 -599.69824219 878.88183594 C-637.00177753 809.89238732 -658.8205685 734.01025616 -669.203125 615.890625 C-669.21014757 614.48264027 -669.21723438 613.07465586 -669.22438049 611.66667175 C-669.24377075 607.19444314 -669.24881435 602.72226642 -669.25 598.25 C-669.25044186 597.48799915 -669.25088371 596.72599831 -669.25133896 595.94090652 C-669.25826886 573.15431102 -668.94346817 550.62880897 -666 528 C-665.82570058 526.58475327 -665.65239177 525.16938424 -665.47998047 523.75390625 C-655.62950806 443.66593707 -629.81703412 365.83203662 -539 223 C-538.25363281 222.07058594 -537.50726562 221.14117187 -536.73828125 220.18359375 C-524.81072157 205.47222301 -512.38805543 191.20538518 -498.8828125 177.91796875 C-497.2880236 176.29340164 -495.84949075 174.65635256 -494.4375 172.875 C-491.92653335 169.91334703 -489.25251225 167.55921326 -486.3046875 165.05078125 C-483.59372514 162.63848423 -481.04549842 160.08354315 -478.5 157.5 C-474.1626426 153.11627343 -469.70100944 148.98898047 -465 145 C-463.96143394 144.09858363 -462.92375043 143.19614991 -461.88671875 142.29296875 C-453.790078 135.26224978 -445.51181556 128.52100156 -437 122 C-436.38962891 121.53126465 -435.77925781 121.0625293 -435.15039062 120.57958984 C-412.19200358 103.00393344 -388.23033464 87.12138678 -363 73 C-361.57204102 72.19973389 -361.57204102 72.19973389 -360.11523438 71.38330078 C-291.50347893 33.16147881 -216.00109521 9.07771367 -138 0 C-136.82695313 -0.14953125 -135.65390625 -0.2990625 -134.4453125 -0.453125 C-90.79992254 -5.89706611 -43.60099153 -5.67144877 0 0 Z M-264 59 C-265.051875 59.37366699 -266.10375 59.74733398 -267.1875 60.13232422 C-281.76396727 65.36073083 -295.90381331 71.60400564 -310 78 C-310.85867676 78.38800781 -311.71735352 78.77601562 -312.60205078 79.17578125 C-358.04837251 99.82407995 -400.48080256 128.0880266 -438.31738281 160.56005859 C-440.09902168 162.08474026 -441.8887341 163.59955505 -443.6796875 165.11328125 C-449.12521994 169.72830913 -454.50105667 174.31390359 -459.4609375 179.45703125 C-461.07125489 181.07143574 -462.75822946 182.52875978 -464.5 184 C-473.30131558 191.59565591 -481.70951384 200.04054854 -489.20703125 208.92578125 C-491.18230264 211.21089914 -493.23195464 213.41365407 -495.29418945 215.62011719 C-501.13812494 221.87651268 -506.65856508 228.30528207 -512 235 C-512.92091185 236.12969208 -513.84284111 237.25855532 -514.765625 238.38671875 C-541.03144326 270.63511306 -563.72748926 306.3363798 -581.90332031 343.74902344 C-582.67624791 345.33548659 -583.45476955 346.91923033 -584.23730469 348.50097656 C-622.16646259 425.17467086 -641.28858695 510.80812948 -641.1875 596.25 C-641.18689575 597.20532623 -641.1862915 598.16065247 -641.18566895 599.14492798 C-641.07298673 665.29969564 -629.24249058 729.74846827 -607 792 C-606.62633301 793.051875 -606.25266602 794.10375 -605.86767578 795.1875 C-593.52759713 829.59085953 -577.07375204 862.84962938 -558 894 C-557.47954102 894.85368164 -556.95908203 895.70736328 -556.42285156 896.58691406 C-545.91115397 913.75090982 -534.22171994 930.02028661 -522 946 C-521.54270508 946.5990918 -521.08541016 947.19818359 -520.61425781 947.81542969 C-510.54392223 960.95979139 -499.64861791 973.36239614 -488.39013672 985.49658203 C-486.93180546 987.07375166 -485.48274879 988.65906503 -484.03515625 990.24609375 C-475.81299744 999.24367782 -467.50147182 1008.14713446 -458.21484375 1016.06640625 C-455.88697751 1018.09867043 -453.62901308 1020.19327504 -451.37133789 1022.30273438 C-446.05492499 1027.26687808 -440.66178543 1032.05205432 -434.984375 1036.60546875 C-432.76972458 1038.38240685 -430.57507619 1040.17495802 -428.390625 1041.98828125 C-396.08039141 1068.72190255 -359.96724618 1091.57998152 -322.25097656 1109.90332031 C-320.66451341 1110.67624791 -319.08076967 1111.45476955 -317.49902344 1112.23730469 C-241.86984967 1149.64975625 -157.04462041 1169.18009905 -69.75 1169.1875 C-68.74321198 1169.18689575 -67.73642395 1169.1862915 -66.6991272 1169.18566895 C-0.59338013 1169.07854635 63.80256071 1157.22316334 126 1135 C127.051875 1134.62633301 128.10375 1134.25266602 129.1875 1133.86767578 C143.76396727 1128.63926917 157.90381331 1122.39599436 172 1116 C172.85867676 1115.61199219 173.71735352 1115.22398438 174.60205078 1114.82421875 C220.04837251 1094.17592005 262.48080256 1065.9119734 300.31738281 1033.43994141 C302.09902168 1031.91525974 303.8887341 1030.40044495 305.6796875 1028.88671875 C311.12521994 1024.27169087 316.50105667 1019.68609641 321.4609375 1014.54296875 C323.07125489 1012.92856426 324.75822946 1011.47124022 326.5 1010 C335.32417584 1002.38461537 343.75473292 993.91458562 351.2734375 985.0078125 C353.11143453 982.87041324 355.01782203 980.80341828 356.93603516 978.73803711 C361.66796227 973.63921304 366.20944329 968.44345932 370.5703125 963.01953125 C372.36164261 960.7933284 374.16738303 958.58511884 375.9921875 956.38671875 C395.1743967 933.19885583 411.94293384 908.0359454 427 882 C427.4031543 881.30938477 427.80630859 880.61876953 428.22167969 879.90722656 C466.91926105 813.33454095 490.97059822 738.36887524 503.1875 597.75 C503.18689575 596.79467377 503.1862915 595.83934753 503.18566895 594.85507202 C503.07298673 528.70030436 491.24249058 464.25153173 469 402 C468.62633301 400.948125 468.25266602 399.89625 467.86767578 398.8125 C462.63926917 384.23603273 456.39599436 370.09618669 450 356 C449.61199219 355.14132324 449.22398438 354.28264648 448.82421875 353.39794922 C429.13252149 310.05708021 402.42831706 269.53433386 372 233 C371.58137695 232.49500977 371.16275391 231.99001953 370.73144531 231.46972656 C364.20875577 223.61252085 357.43523517 216.0384969 350.46435547 208.57763672 C349.04910134 207.05289977 347.64869501 205.51611533 346.25390625 203.97265625 C337.686346 194.49761406 328.89601469 185.1366451 319.14453125 176.86328125 C316.83810608 174.85933807 314.60759057 172.78730928 312.37548828 170.70141602 C306.1200801 164.85947638 299.69310626 159.34014904 293 154 C291.87030792 153.07908815 290.74144468 152.15715889 289.61328125 151.234375 C220.01531146 94.54790535 137.37251473 56.40022436 -264 59 Z " fill="#20749B" transform="translate(669,3)"/>
<path d="M0 0 C0.66 0 1.32 0 2 0 C10.36633218 22.62616714 18.66790912 45.27581654 26.9375 67.9375 C27.30253569 68.93782698 27.30253569 68.93782698 27.67494583 69.95836258 C29.93591585 76.15439744 32.19654895 82.35055519 34.4568634 88.54682922 C37.89829853 97.98092371 41.34108872 107.41452245 44.78515625 116.84765625 C45.13936551 117.81782086 45.13936551 117.81782086 45.50073051 118.80758476 C46.69098677 122.06762335 47.8812693 125.32765235 49.07156372 128.587677 C51.22475325 134.48495553 53.37770849 140.38231959 55.53068352 146.27967644 C56.72877962 149.56145439 57.92689055 152.84322692 59.125 156.125 C59.60416674 157.43749997 60.0833334 158.74999997 60.5625 160.0625 C60.7996875 160.7121875 61.036875 161.361875 61.28125 162.03125 C109.43749993 293.9374998 109.43749993 293.9374998 110.15626431 295.90629005 C110.63538254 297.21865681 111.11450152 298.5310233 111.59362125 299.84338951 C112.79228506 303.12667586 113.99093583 306.40996697 115.18955994 309.69326782 C117.33687458 315.57520639 119.4842749 321.45711359 121.63217449 327.33883858 C122.81865061 330.58784762 124.0050487 333.83688516 125.19140625 337.0859375 C125.42677156 337.73052288 125.66213688 338.37510826 125.90463448 339.03922653 C129.17188517 347.98757786 132.4354984 356.93724893 135.69650269 365.88787842 C137.52128976 370.89640452 139.34707142 375.9045679 141.17306328 380.91265488 C142.41080262 384.3075976 143.64799772 387.70273632 144.88378906 391.09838867 C149.69581209 404.32009447 154.51613768 417.53506775 159.6058197 430.65310669 C159.90871414 431.43773285 160.21160858 432.22235901 160.52368164 433.03076172 C160.91771935 434.04334549 160.91771935 434.04334549 161.31971741 435.0763855 C162.01110734 437.03140789 162.53018763 438.98132415 163 441 C128.81596849 455.44340939 90.68297623 462.48327209 54 467 C53.34286011 467.0825 52.68572021 467.165 52.00866699 467.25 C11.83698943 472.24698291 -29.84498022 472.065312 -70 467 C-71.02272003 466.87271515 -71.02272003 466.87271515 -72.06610107 466.74285889 C-93.01989409 464.11179896 -113.48717196 459.99882564 -134 455 C-135.04671875 454.75185547 -136.0934375 454.50371094 -137.171875 454.24804688 C-139.910439 453.59781905 -142.64352233 452.92929834 -145.375 452.25 C-146.15407715 452.06373047 -146.9331543 451.87746094 -147.73583984 451.68554688 C-149.8359375 451.140625 -149.8359375 451.140625 -153 450 C-154.18779004 446.43662988 -153.74737278 445.54475957 -152.53491211 442.07543945 C-152.00934471 440.54991707 -152.00934471 440.54991707 -151.47315979 438.99357605 C-151.0785405 437.87807877 -150.6839212 436.76258148 -150.27734375 435.61328125 C-149.86987411 434.43828568 -149.46240448 433.2632901 -149.04258728 432.0526886 C-148.15225373 429.48904977 -147.25871699 426.92680258 -146.35955811 424.36627197 C-144.91910323 420.26403042 -143.49098548 416.15756269 -142.06494141 412.05029297 C-140.56894375 407.74339801 -139.07207506 403.43681537 -137.57092285 399.13171387 C-134.14667271 389.31093865 -130.74733631 379.48191202 -127.37109375 369.64453125 C-127.14342567 368.98122047 -126.9157576 368.3179097 -126.68119049 367.6344986 C-125.53646361 364.29891802 -124.39218886 360.96318255 -123.24810791 357.62738037 C-120.94596691 350.91584599 -118.63917512 344.20590969 -116.33203125 337.49609375 C-116.1062011 336.83927361 -115.88037094 336.18245346 -115.64769745 335.50572968 C-110.96742873 321.89453698 -106.26667595 308.29044613 -101.5625 294.6875 C-94.55579773 274.42607597 -87.5820571 254.15350871 -80.625 233.875 C-80.3828904 233.16929619 -80.14078079 232.46359238 -79.89133453 231.7365036 C-79.40209353 230.31045058 -78.91285352 228.88439721 -78.4236145 227.45834351 C-77.20303897 223.90059507 -75.9824072 220.34286594 -74.76171875 216.78515625 C-74.52037956 216.08176369 -74.27904037 215.37837112 -74.03038788 214.65366364 C-68.4132379 198.28319219 -62.77927917 181.91852393 -57.14318848 165.55456543 C-52.24606183 151.33604334 -47.35120726 137.11675572 -42.46484375 122.89453125 C-42.11865116 121.88692214 -42.11865116 121.88692214 -41.76546478 120.85895729 C-40.83256279 118.14369201 -39.89967287 115.42842257 -38.96678925 112.71315098 C-31.18143677 90.05320682 -23.38464267 67.3972738 -15.5625 44.75 C-14.98130402 43.066716 -14.98130402 43.066716 -14.3883667 41.34942627 C-9.62478326 27.55480266 -4.83342257 13.77031442 0 0 Z " fill="#20749B" transform="translate(608,645)"/>
<path d="M0 0 C0.66 0 1.32 0 2 0 C2.22898483 0.63763779 2.45796967 1.27527557 2.69389343 1.93223572 C5.6882412 10.26859162 8.68645728 18.60355227 11.6875 26.9375 C12.05646141 27.9621253 12.05646141 27.9621253 12.43287659 29.0074501 C19.78893443 49.43189413 27.22192682 69.8257351 34.75 90.1875 C41.30946191 107.93009437 47.80120355 125.69431868 54.1875 143.5 C59.95777765 159.5860881 65.78254136 175.65033829 71.6875 191.6875 C72.05162994 192.67651306 72.41575989 193.66552612 72.79092407 194.68450928 C73.1580954 195.6817804 73.52526672 196.67905151 73.90356445 197.70654297 C79.83970845 213.830807 85.74680671 229.96551812 91.638134 246.10619736 C92.37556123 248.1265376 93.11308438 250.14684281 93.85061646 252.16714478 C98.96795882 266.18583315 104.07849075 280.20696082 109.171875 294.234375 C109.58465698 295.37112671 109.99743896 296.50787842 110.42272949 297.67907715 C114.06364764 307.70601321 114.06364764 307.70601321 115.35546875 311.26416016 C122.07113879 329.7562373 128.86764395 348.21770307 135.68551636 366.67230225 C142.60731307 385.41705766 149.42437429 404.19760873 156.1875 423 C162.71472654 441.14578576 169.2728983 459.27908896 175.9375 477.375 C176.29553711 478.34717468 176.65357422 479.31934937 177.02246094 480.32098389 C177.38243164 481.2983551 177.74240234 482.27572632 178.11328125 483.28271484 C178.85159424 485.28742321 179.58987514 487.29214339 180.328125 489.296875 C180.88457703 490.80787277 180.88457703 490.80787277 181.45227051 492.34939575 C186.3898474 505.76514258 191.28749551 519.19549749 196.1875 532.625 C196.67317487 533.95600463 197.15885196 535.28700846 197.64453125 536.61801147 C199.60568149 541.99264862 201.56670772 547.36733099 203.52746582 552.74211121 C207.51925723 563.68408301 211.51421168 574.62489781 215.51057434 585.56520081 C217.94651053 592.23400418 220.38131766 598.9032153 222.81323242 605.57348633 C223.74912613 608.14015863 224.68509093 610.70680499 225.62109375 613.2734375 C225.8487763 613.89783155 226.07645885 614.52222561 226.31104088 615.1655407 C229.13433618 622.90676681 231.97001444 630.6432745 234.82191467 638.37400818 C236.36293656 642.5529333 237.89865531 646.73379589 239.43362427 650.91494751 C240.13811764 652.82919449 240.84532338 654.74244569 241.5553894 656.65463257 C242.51241603 659.23217708 243.46039837 661.81286952 244.40625 664.39453125 C244.68827774 665.14638702 244.97030548 665.8982428 245.26087952 666.67288208 C245.89887212 668.42848942 246.45806914 670.21240311 247 672 C246.67 672.66 246.34 673.32 246 674 C215.15298959 659.10455792 185.76935731 641.45062025 158.73242188 620.3515625 C156.98028069 618.98461583 155.21757956 617.63225151 153.453125 616.28125 C134.77164396 601.89139067 117.68259737 585.75665511 101 569.125 C100.505 568.63267883 100.01 568.14035767 99.5 567.63311768 C93.77924865 561.93590167 88.22836229 556.15551855 83 550 C82.01544269 548.87011703 81.02979799 547.74118049 80.04296875 546.61328125 C73.90952369 539.54363424 68.00201825 532.35800811 62.39404297 524.86230469 C61.40428577 523.54008613 60.41072431 522.22071149 59.41455078 520.90332031 C46.86872888 504.29866253 35.41243832 487.02044743 25 469 C24.443125 468.0406958 24.443125 468.0406958 23.875 467.06201172 C-11.29788556 406.11845199 -33.25698007 338.56941114 -41.25 268.6875 C-41.33317474 267.96132477 -41.41634949 267.23514954 -41.50204468 266.48696899 C-43.58725587 248.04292617 -44.24056633 229.80186245 -44.25 211.25 C-44.25067474 210.05436432 -44.25134949 208.85872864 -44.25204468 207.62686157 C-44.23416272 187.60090678 -43.51051752 167.86993835 -41 148 C-40.91514343 147.32054321 -40.83028687 146.64108643 -40.74285889 145.94104004 C-34.39145997 95.57519875 -20.90387746 46.29821748 0 0 Z " fill="#20749B" transform="translate(129,390)"/>
<path d="M0 0 C0.66 0 1.32 0 2 0 C11.73746929 19.03402217 21.3605729 38.00317743 29 58 C29.37527832 58.98129883 29.75055664 59.96259766 30.13720703 60.97363281 C45.72090125 102.16337158 56.22922557 144.49904057 61.25 188.25 C61.33317474 188.97190521 61.41634949 189.69381042 61.50204468 190.43759155 C63.59923633 208.88006883 64.24010984 227.19722701 64.25 245.75 C64.25067474 246.89417389 64.25134949 248.03834778 64.25204468 249.2171936 C64.23335961 269.28303103 63.42942359 289.08003143 61 309 C60.9175 309.68161194 60.835 310.36322388 60.75 311.06549072 C49.72233148 400.95954532 14.45211958 486.71677477 -55 577 C-55.49709473 577.59619141 -55.99418945 578.19238281 -56.50634766 578.80664062 C-67.51391486 591.96494501 -79.2706135 604.34885263 -91.375 616.5 C-92.62313477 617.75514404 -92.62313477 617.75514404 -93.89648438 619.03564453 C-98.77102831 623.8975045 -103.77388967 628.52086631 -109 633 C-110.15666551 634.02149592 -111.31165662 635.04489139 -112.46484375 636.0703125 C-121.64649698 644.17254368 -131.1833466 651.68495017 -141 659 C-141.97501465 659.73114014 -141.97501465 659.73114014 -142.96972656 660.47705078 C-151.42297488 666.80943562 -160.0251631 672.86913205 -168.8828125 678.62304688 C-170.41169761 679.61738636 -171.93734352 680.61671253 -173.4609375 681.61914062 C-176.05007846 683.3199652 -178.64866468 685.00539838 -181.25 686.6875 C-182.07274414 687.22947021 -182.89548828 687.77144043 -183.74316406 688.32983398 C-184.51370117 688.82298096 -185.28423828 689.31612793 -186.078125 689.82421875 C-186.76293945 690.26854248 -187.44775391 690.71286621 -188.15332031 691.1706543 C-190 692 -190 692 -193 691 C-185.70293166 669.49359214 -178.37935197 647.99758838 -170.875 626.5625 C-164.68997127 608.89555262 -158.58435402 591.20180589 -152.5 573.5 C-146.55890987 556.21577846 -140.60162089 538.93777633 -134.5625 521.6875 C-128.06032924 503.11403466 -121.6645978 484.50453049 -115.27638626 465.89165878 C-109.10833627 447.92079007 -102.91393042 429.96008444 -96.63427734 412.02783203 C-90.68833953 395.04181495 -84.84229635 378.02185463 -79 361 C-72.21325072 341.22722283 -65.40185855 321.46391609 -58.49365234 301.7331543 C-55.10454349 292.05034668 -51.73970513 282.35958827 -48.3984375 272.66015625 C-47.59734453 270.3369093 -46.79623775 268.01366712 -45.99511719 265.69042969 C-44.83192488 262.31678082 -43.66972199 258.94281292 -42.51135254 255.56750488 C-38.21225594 243.04085188 -33.76823117 230.58684688 -29.08743286 218.19743347 C-10.37367858 168.66319783 1.92890898 116.11134091 3 63 C3.02046387 62.3306543 3.04092773 61.66130859 3.06201172 60.97167969 C3.65751931 40.70473528 1.77796874 20.17264669 0 0 Z " fill="#20749B" transform="translate(1051,353)"/>
</svg>
