<svg width="188" height="60" viewBox="0 0 188 60" fill="none" xmlns="http://www.w3.org/2000/svg">
<g clip-path="url(#clip0_9_2)">
<path d="M8.17332 20.2232C12.5051 8.69107 14.8894 3.48901 16.3699 2.34044C17.4545 1.4986 17.8601 1.47078 19.3955 2.13269C22.069 3.28558 21.8762 5.11062 18.0794 14.5736C12.6796 28.0321 12.0828 30.0597 13.3693 30.5699C13.6654 30.6874 16.0885 30.7041 18.7545 30.6069C25.1203 30.3754 26.3059 30.9347 26.1866 34.1129C26.0403 35.9365 25.0344 36.5863 24.0719 36.8689C23.1094 37.1517 19.988 37.4761 15.6628 38.0224C6.9979 39.1174 5.90197 39.0497 4.58874 37.3381C3.08255 35.3757 3.84018 31.7596 8.17332 20.2232Z" fill="#9BA3AF"/>
<path d="M16.5116 43.2977C15.75 43.2977 10.6623 43.7284 8.59292 43.9718C6.59584 44.2064 3.76886 44.4768 1.4889 45.604C-0.410172 46.8738 0.304785 49.0898 1.16181 49.8731C1.72584 50.3885 3.66349 50.6404 5.24361 50.6404C6.46218 50.6404 9.09641 50.3766 10.6623 50.1742C14.9583 49.4473 19.6049 48.3035 20.4706 47.742C21.3841 47.1496 21.6876 46.495 21.6384 45.5669C21.523 43.3915 18.0338 43.2977 16.5116 43.2977Z" fill="#9BA3AF"/>
<path fill-rule="evenodd" clip-rule="evenodd" d="M64.3718 0.470952C63.7766 0.763535 63.0986 1.42029 62.8652 1.93041C62.0422 3.72949 61.7187 9.58354 61.6771 23.4407C61.6771 23.4407 61.427 34.7496 61.6771 36.525C61.9272 38.3004 62.4307 38.722 62.4307 38.722C63.9745 41.1951 66.5985 41.1514 68.9754 38.6124C72.2425 35.1226 85.5105 13.1983 87.0124 8.80712C87.4801 7.44002 87.5023 6.98487 87.1435 6.12235C86.5666 4.73553 85.5396 4.07358 83.9639 4.07358C82.0561 4.07358 80.871 5.49085 77.4328 11.8865C72.3317 21.3736 70.4003 23.7838 69.1778 22.1864C68.7651 21.6465 68.7238 20.242 68.9305 13.7572C69.0671 9.47738 69.1967 5.35319 69.2185 4.59234C69.2771 2.54842 68.4907 0.961356 67.1414 0.399711C65.9939 -0.0779702 65.2807 0.0240798 64.3718 0.470952ZM124.306 0.280048C116.459 0.775638 112.982 1.51159 111.631 2.96274C110.136 4.56918 110.689 7.48773 112.622 8.19395C113.033 8.34405 115.322 8.26691 117.709 8.02275C123.351 7.44521 126.83 7.41823 127.361 7.94703C127.59 8.17528 127.777 8.83686 127.777 9.41683C127.776 11.5936 124.568 23.3944 121.473 32.6015C119.887 37.3226 119.766 37.9004 120.122 39.0837C120.381 39.9447 120.854 40.5584 121.524 40.9038C123.185 41.7593 124.252 41.5602 125.682 40.1277C126.743 39.0646 127.232 38.0519 128.398 34.5077C130.368 28.5149 131.999 22.8753 133.699 16.178C135.479 9.16472 135.961 7.91762 137.05 7.50503C137.513 7.3297 139.249 7.1782 140.907 7.16852C147.723 7.12839 149.935 6.44399 150.5 4.2005C150.788 3.05647 149.839 1.16817 148.68 0.582661C147.575 0.0241253 131.518 -0.175425 124.306 0.280048ZM41.7797 0.971386C39.1493 1.78861 37.7005 4.30081 35.3029 12.2009C31.7885 23.7817 30.5666 29.3602 30.515 34.0597C30.4759 37.6352 31.186 39.0021 33.5508 39.9016C34.9794 40.4452 35.5354 40.4604 39.5263 40.0661C46.875 39.3405 48.9751 38.8476 50.1293 37.5781C50.9836 36.6382 51.0674 36.0698 50.9323 35.0673C50.6407 32.8983 50.0176 32.3781 43.9624 32.5001C43.9624 32.5001 38.9985 32.9438 38.7396 32.6054C38.4807 32.2673 38.3229 31.7408 38.3229 31.7408C37.6149 30.2725 38.7105 25.4767 39.8983 24.8434C40.2079 24.6781 41.9445 24.4367 43.7566 24.3064C49.6097 23.8862 51.0449 23.1744 51.0449 20.6933C51.0449 19.7686 50.7876 19.0312 50.2464 18.4046C49.5505 17.5988 49.0304 17.4286 46.2039 17.0804C41.8692 16.5467 41.7454 16.3641 42.8935 12.2064C44.1311 7.72673 44.1839 7.69246 49.0495 8.21434C55.1657 8.87076 58.3363 7.93006 58.3363 5.45971C58.3363 2.16696 55.8989 1.0952 47.7466 0.80227C44.9563 0.701975 42.4146 0.774257 41.7797 0.971386ZM182.738 2.50001C182.093 2.78429 181.175 3.69006 180.555 4.65598C179.197 6.76873 173.88 17.3439 171.891 21.8844C169.963 26.2873 169.554 26.8991 168.541 26.8991C167.459 26.8991 166.704 25.3695 165.466 20.674C162.117 7.97295 161.659 6.84308 159.584 6.16075C158.934 5.94703 158.007 5.87094 157.524 5.99164C155.339 6.53805 154.793 8.77944 155.885 12.7196C157.019 16.8071 159.232 25.5061 160.744 31.8242C161.506 35.0085 162.369 38.0743 162.662 38.6373C162.954 39.2003 163.192 40.0968 163.191 40.6291C163.189 41.1617 161.939 44.6959 160.413 48.4828C158.686 52.7657 157.637 55.8528 157.637 56.6497C157.637 60.1532 161.758 61.2443 163.781 58.277C164.605 57.0676 167.032 51.6828 171.531 41.0786C176.396 29.6109 180.736 19.993 184.011 13.4217C186.632 8.16178 187.15 6.85103 187.15 5.48496C187.15 4.23337 186.966 3.67726 186.369 3.12184C185.3 2.12857 184.064 1.91657 182.738 2.50001ZM101.111 2.91467C99.6206 3.6572 99.3387 4.25134 97.2662 11.0126C96.3074 14.139 94.1882 20.5875 92.5557 25.3428C88.9797 35.7596 88.7572 37.6892 90.9988 38.8434C93.6777 40.2233 95.3105 38.9138 97.139 33.918C103.129 17.5559 105.211 10.8625 105.461 7.16612C105.595 5.18964 105.461 4.35498 104.816 3.63437C103.747 2.44018 102.536 2.205 101.111 2.91467Z" fill="#9BA3AF"/>
</g>
<defs>
<clipPath id="clip0_9_2">
<rect width="187.162" height="60" fill="white"/>
</clipPath>
</defs>
</svg>
