<svg width="432" height="91" viewBox="0 0 432 91" fill="none" xmlns="http://www.w3.org/2000/svg">
<g clip-path="url(#clip0_101_3)">
<path d="M108.895 53.4001C108.895 53.4001 114.567 57.1815 120.305 57.1815C123.89 57.1815 125.194 55.682 125.194 53.9217C125.194 51.9006 123.825 50.8575 117.892 49.2276C109.287 46.8154 104.397 43.6209 104.397 37.1666C104.397 30.0604 109.482 25.0403 120.109 25.0403C131.062 25.0403 135.365 29.2128 135.365 29.2128L130.279 36.9058C130.279 36.9058 126.042 33.6461 120.109 33.6461C116.393 33.6461 115.285 34.8847 115.285 36.5146C115.285 38.4705 117.11 39.2528 122.065 40.5567C131.257 42.9689 136.277 46.359 136.277 52.8786C136.277 59.9848 131.323 65.8524 120.565 65.8524C109.417 65.8524 103.745 60.6368 103.745 60.6368L108.895 53.4001Z" fill="#9BA3AF"/>
<path d="M138.363 45.4463C138.363 34.2328 146.251 25.0403 159.225 25.0403C172.329 25.0403 180.218 34.2328 180.218 45.4463C180.218 56.6598 172.329 65.8524 159.225 65.8524C146.251 65.8524 138.363 56.6598 138.363 45.4463ZM170.439 45.4463C170.439 38.6661 165.549 34.1676 159.225 34.1676C153.031 34.1676 148.142 38.6661 148.142 45.4463C148.142 52.2266 153.031 56.7251 159.225 56.7251C165.549 56.7251 170.439 52.2266 170.439 45.4463Z" fill="#9BA3AF"/>
<path d="M218.422 61.0931C218.422 61.0931 214.054 65.8524 204.47 65.8524C191.366 65.8524 183.477 56.6598 183.477 45.4463C183.477 34.2328 191.366 25.0403 204.47 25.0403C214.119 25.0403 218.422 29.7995 218.422 29.7995L213.01 37.0362C213.01 37.0362 208.968 34.1025 204.6 34.1025C197.95 34.1025 193.256 38.6661 193.256 45.4463C193.256 52.2266 197.95 56.7902 204.6 56.7902C210.142 56.7902 213.01 53.8565 213.01 53.8565L218.422 61.0931Z" fill="#9BA3AF"/>
<path d="M231.069 65.0048H221.615V25.8879H231.069V65.0048Z" fill="#9BA3AF"/>
<path d="M254.212 25.8879H255.777L276.313 65.0048H265.621L263.47 60.376H246.454L244.368 65.0048H233.741L254.212 25.8879ZM255.19 42.4475H254.669L249.844 52.683L249.257 53.7261H260.601L260.015 52.683L255.19 42.4475Z" fill="#9BA3AF"/>
<path d="M278.92 65.0048V25.8879H288.374V56.8555H308.258V65.0048H278.92Z" fill="#9BA3AF"/>
<path d="M312.822 25.8879H341.899V30.7775H318.168V43.295H338.965V48.0542H318.168V65.0048H312.822V25.8879Z" fill="#9BA3AF"/>
<path d="M351.221 65.0048H345.875V25.8879H351.221V65.0048Z" fill="#9BA3AF"/>
<path d="M387.664 39.0572C387.664 45.316 384.209 49.4233 378.863 51.2488V51.5095L388.968 63.9617V65.0048H383.035L372.8 52.2919H360.869V65.0048H355.523V25.8879H371.887C381.666 25.8879 387.664 30.5168 387.664 39.0572ZM371.756 30.7775H360.869V47.4674H372.278C378.015 47.4674 382.057 44.8596 382.057 39.1876C382.057 33.5158 378.015 30.7775 371.756 30.7775Z" fill="#9BA3AF"/>
<path d="M426.65 37.5578L413.416 51.705H411.981L398.747 37.623V65.0048H393.401V25.8879H394.9L412.699 44.6641L430.562 25.8879H431.996V65.0048H426.65V37.5578Z" fill="#9BA3AF"/>
<path d="M2.49557 49.3308C0.297678 47.1329 0.294919 43.5626 2.49837 41.3611C4.69981 39.1605 8.26885 39.1605 10.4673 41.3597C12.6687 43.5626 12.6687 47.1287 10.4673 49.3308C8.2645 51.5323 4.6963 51.5323 2.49557 49.3308Z" fill="#9BA3AF"/>
<path d="M80.8812 49.3308C78.6833 47.1329 78.6805 43.5626 80.884 41.3611C83.0854 39.1605 86.6545 39.1605 88.8529 41.3597C91.0543 43.5626 91.0543 47.1287 88.8529 49.3308C86.6501 51.5323 83.0819 51.5323 80.8812 49.3308Z" fill="#9BA3AF"/>
<path d="M39.9843 84.5809C39.9843 81.4686 42.507 78.9431 45.6201 78.9431C48.736 78.9431 51.2565 81.4686 51.2565 84.5809C51.2565 87.6905 48.736 90.2166 45.6201 90.2166C42.507 90.2166 39.9843 87.6905 39.9843 84.5809Z" fill="#9BA3AF"/>
<path d="M40.0162 6.31174C40.0162 9.42415 42.5389 11.9496 45.652 11.9496C48.7679 11.9496 51.2883 9.42415 51.2883 6.31174C51.2883 3.20218 48.7679 0.676025 45.652 0.676025C42.5389 0.676025 40.0162 3.20218 40.0162 6.31174Z" fill="#9BA3AF"/>
<path d="M13.9278 69.0778C16.1258 66.8793 19.6998 66.8793 21.8997 69.0821C24.0997 71.2827 24.0997 74.851 21.8997 77.0503C19.6998 79.2545 16.1308 79.2545 13.9278 77.0503C11.7258 74.8482 11.7258 71.2813 13.9278 69.0778Z" fill="#9BA3AF"/>
<path d="M69.3663 77.1149C67.1684 74.917 67.1657 71.3466 69.3691 69.1452C71.5706 66.9445 75.1396 66.9445 77.3381 69.1438C79.5395 71.3466 79.5395 74.9128 77.3381 77.1149C75.1353 79.3163 71.567 79.3163 69.3663 77.1149Z" fill="#9BA3AF"/>
<path d="M13.9598 21.8148C16.1577 24.0135 19.7317 24.0135 21.9316 21.8106C24.1316 19.6099 24.1316 16.0417 21.9316 13.8424C19.7317 11.6381 16.1627 11.6381 13.9598 13.8424C11.7577 16.0445 11.7577 19.6113 13.9598 21.8148Z" fill="#9BA3AF"/>
<path d="M69.3982 13.7779C67.2003 15.9758 67.1976 19.5462 69.401 21.7475C71.6025 23.9483 75.1715 23.9483 77.37 21.749C79.5714 19.5462 79.5714 15.98 77.37 13.7779C75.1672 11.5765 71.5989 11.5765 69.3982 13.7779Z" fill="#9BA3AF"/>
<path d="M45.4382 45.4313C45.4379 45.4346 45.4373 45.4378 45.4372 45.4412C44.212 46.2416 34.5281 52.5112 23.7583 57.8267C13.616 62.8349 0.0784454 64.2262 0.0784454 64.2262L26.6727 64.2597L26.7422 90.8928C26.7422 90.8928 28.1343 77.3561 33.1438 67.211C33.6328 66.2195 34.1301 65.2371 34.6304 64.2697L34.6439 64.2697L44.9641 46.4012C45.2029 46.0286 45.3807 45.7544 45.4888 45.5886C45.5281 45.6343 45.5856 45.6638 45.6506 45.6638C45.6786 45.6638 45.7052 45.6581 45.7297 45.6483C46.7923 47.2814 52.8684 56.7352 58.0382 67.211C63.044 77.3561 64.4361 90.89 64.4361 90.89L64.4712 64.2958L91.1019 64.2262C91.1019 64.2262 77.5659 62.8335 67.4216 57.8267C66.4305 57.3375 65.4486 56.8402 64.4817 56.3398L64.4817 56.3266L46.617 46.0057C46.2804 45.79 46.0238 45.6239 45.854 45.5134C45.8604 45.4931 45.8648 45.472 45.8648 45.4496C45.8648 45.4316 45.8619 45.4144 45.8577 45.3977C46.0264 45.2878 46.2925 45.1154 46.6483 44.8875L64.5136 34.5661L64.5136 34.5529C65.4805 34.0525 66.4624 33.5552 67.4534 33.066C77.5979 28.0594 91.1338 26.6665 91.1338 26.6665L64.5031 26.597L64.468 0.0027619C64.468 0.0027619 63.0759 13.5367 58.07 23.6817C52.8827 34.1932 46.7825 43.6762 45.7507 45.2613C45.7207 45.2453 45.687 45.2354 45.6506 45.2354C45.5968 45.2354 45.5482 45.2559 45.5106 45.2886C45.4018 45.1216 45.2278 44.8532 44.9962 44.4919L34.6758 26.6231L34.6623 26.6231C34.162 25.6557 33.6647 24.6733 33.1756 23.6817C28.1662 13.5367 26.7741 0 26.7741 0L26.7046 26.6331L0.110328 26.6665C0.110328 26.6665 13.6479 28.0579 23.7901 33.066C34.474 38.339 44.0892 44.5511 45.4382 45.4313Z" fill="#9BA3AF"/>
<path d="M0.0037384 64.1953C0.0037384 64.1953 10.5604 55.6092 21.2722 51.9758C32.033 48.3277 42.7123 45.9704 45.0439 45.4729H45.4374C45.4476 45.5549 45.5035 45.6219 45.5794 45.6481C45.1895 47.4929 42.7981 58.5139 39.0317 69.6208C35.3995 80.3318 26.8135 90.8858 26.8135 90.8858L45.6436 72.1059L64.5207 90.8858C64.5207 90.8858 55.936 80.3318 52.304 69.6208C51.9487 68.5735 51.6057 67.5271 51.2755 66.489L51.2857 66.4789L45.9537 46.565C45.8623 46.1475 45.7952 45.8329 45.7529 45.6327C45.8005 45.6061 45.8364 45.5623 45.8527 45.5093H45.8599H46.1255C48.4571 46.0068 59.1364 48.3641 69.8972 52.0122C80.609 55.6457 91.1657 64.2318 91.1657 64.2318L72.4491 45.4675L91.2085 26.6603C91.2085 26.6603 80.6518 35.2463 69.94 38.8799C59.1798 42.5277 48.5011 44.885 46.1687 45.3827H45.8525C45.8394 45.3411 45.8144 45.3053 45.7809 45.2789C45.823 45.0795 45.8916 44.7578 45.9861 44.3263L51.3176 24.414L51.3074 24.4039C51.6377 23.3658 51.9807 22.3193 52.3359 21.2721C55.9679 10.5611 64.5526 0.00708008 64.5526 0.00708008L45.6755 18.787L26.8454 0.00708008C26.8454 0.00708008 35.4314 10.5611 39.0636 21.2721C42.8243 32.3622 45.2141 43.3666 45.6094 45.2362C45.5446 45.2484 45.4908 45.2899 45.4607 45.3463H45.0868C42.7552 44.8487 32.0758 42.4914 21.315 38.8434C10.6032 35.2099 0.0464988 26.6238 0.0464988 26.6238L18.7632 45.3881L0.0037384 64.1953Z" fill="#9BA3AF"/>
</g>
<defs>
<clipPath id="clip0_101_3">
<rect width="432" height="90.8928" fill="white"/>
</clipPath>
</defs>
</svg>
